# File created by Blade
# Date/Time:  Fri Jan 16 17:25:32 2015
#---------------------------------------------------------
:version 1.10
:name HOM
:units
  mass 1.0
  length 1.000000
  angle deg
:documentation
     Acclaim Skeleton File
:root
   axis xyz
   order TX TY TZ RX RY RZ
   position 0.000000 0.000000 0.000000
   orientation 0 0 0
:bonedata
   begin
      id 1
      name Spine_dum
      direction 0.000000 1.000000 0.000000
      length 7.170412
      axis 0.0 0.0 0.0 xyz
   end
   begin
      id 2
      name LeftUpLeg_dum
      direction 1.000000 0.000000 0.000000
      length 4.318350
      axis 0.0 0.0 0.0 xyz
   end
   begin
      id 3
      name RightUpLeg_dum
      direction -1.000000 0.000000 0.000000
      length 4.318350
      axis 0.0 0.0 0.0 xyz
   end
   begin
      id 4
      name Spine
      direction 0.000000 1.000000 0.000000
      length 0.000000
      axis 0.0 0.0 0.0 xyz
      dof rx ry rz
   end
   begin
      id 5
      name Spine_dum1
      direction 0.000000 1.000000 0.000000
      length 14.276153
      axis 0.0 0.0 0.0 xyz
   end
   begin
      id 6
      name Spine_dum2
      direction 0.000000 1.000000 0.000000
      length 10.718243
      axis 0.0 0.0 0.0 xyz
   end
   begin
      id 7
      name Spine_dum3
      direction 0.000000 1.000000 0.000000
      length 10.718243
      axis 0.0 0.0 0.0 xyz
   end
   begin
      id 8
      name Head
      direction 0.000000 1.000000 0.000000
      length 4.527550
      axis 0.0 0.0 0.0 xyz
      dof rx ry rz
   end
   begin
      id 9
      name LeftShoulder
      direction 1.000000 0.000000 0.000000
      length 7.058872
      axis 0.0 0.0 -90.0 xyz
      dof rx ry rz
   end
   begin
      id 10
      name LeftArm
      direction 1.000000 0.000000 0.000000
      length 10.955525
      axis 0.0 0.0 -90.0 xyz
      dof rx ry rz
   end
   begin
      id 11
      name LeftForeArm
      direction 1.000000 0.000000 0.000000
      length 8.193716
      axis 0.0 0.0 -90.0 xyz
      dof ry rz rx
   end
   begin
      id 12
      name LeftHand
      direction 0.000000 0.000000 0.000000
      length 0.000000
      axis 0.0 0.0 -90.0 xyz
      dof rx ry rz
   end
   begin
      id 13
      name LeftHand_dum1
      direction 0.000000 0.000000 0.000000
      length 0.000000
      axis 0.0 0.0 -90.0 xyz
   end
   begin
      id 14
      name LeftHand_dum2
      direction 1.000000 0.000000 0.000000
      length 3.937000
      axis 0.0 0.0 -90.0 xyz
   end
   begin
      id 15
      name LeftHandThumb1
      direction 0.000000 0.000000 1.000000
      length 3.937000
      axis 0.0 0.0 -90.0 xyz
      dof rx rz ry
   end
   begin
      id 16
      name RightShoulder
      direction -1.000000 0.000000 0.000000
      length 7.058872
      axis 0.0 0.0 90.0 xyz
      dof rx ry rz
   end
   begin
      id 17
      name RightArm
      direction -1.000000 0.000000 0.000000
      length 10.955525
      axis 0.0 0.0 90.0 xyz
      dof rx ry rz
   end
   begin
      id 18
      name RightForeArm
      direction -1.000000 0.000000 0.000000
      length 8.193716
      axis 0.0 0.0 90.0 xyz
      dof ry rz rx
   end
   begin
      id 19
      name RightHand
      direction 0.000000 0.000000 0.000000
      length 0.000000
      axis 0.0 0.0 90.0 xyz
      dof rx ry rz
   end
   begin
      id 20
      name RightHand_dum1
      direction 0.000000 0.000000 0.000000
      length 0.000000
      axis 0.0 0.0 90.0 xyz
   end
   begin
      id 21
      name RightHand_dum2
      direction -1.000000 0.000000 0.000000
      length 3.937000
      axis 0.0 0.0 90.0 xyz
   end
   begin
      id 22
      name RightHandThumb1
      direction 0.000000 0.000000 1.000000
      length 3.937000
      axis 0.0 0.0 90.0 xyz
      dof rx rz ry
   end
   begin
      id 23
      name LeftUpLeg
      direction 0.000000 -1.000000 0.000000
      length 17.323638
      axis 0.0 0.0 0.0 xyz
      dof rx ry rz
   end
   begin
      id 24
      name LeftLeg
      direction 0.000000 -1.000000 0.000000
      length 16.270368
      axis 0.0 0.0 0.0 xyz
      dof rx ry rz
   end
   begin
      id 25
      name LeftFoot
      direction 0.000000 -0.258819 0.965926
      length 4.922846
      axis 15.0 0.0 0.0 xyz
      dof rx ry rz
   end
   begin
      id 26
      name LeftToeBase
      direction 0.000000 0.000000 1.000000
      length 2.952750
      axis 0.0 0.0 0.0 xyz
      dof rx ry rz
   end
   begin
      id 27
      name RightUpLeg
      direction 0.000000 -1.000000 0.000000
      length 17.323638
      axis 0.0 0.0 0.0 xyz
      dof rx ry rz
   end
   begin
      id 28
      name RightLeg
      direction 0.000000 -1.000000 0.000000
      length 16.270368
      axis 0.0 0.0 0.0 xyz
      dof rx ry rz
   end
   begin
      id 29
      name RightFoot
      direction 0.000000 -0.258819 0.965926
      length 4.922846
      axis 15.0 0.0 0.0 xyz
      dof rx ry rz
   end
   begin
      id 30
      name RightToeBase
      direction 0.000000 0.000000 1.000000
      length 2.952750
      axis 0.0 0.0 0.0 xyz
      dof rx ry rz
   end
:hierarchy
   begin
      root Spine_dum LeftUpLeg_dum RightUpLeg_dum
      Spine_dum Spine
      LeftUpLeg_dum LeftUpLeg
      RightUpLeg_dum RightUpLeg
      Spine Spine_dum1 Spine_dum2 Spine_dum3
      Spine_dum1 Head
      Spine_dum2 LeftShoulder
      Spine_dum3 RightShoulder
      LeftShoulder LeftArm
      LeftArm LeftForeArm
      LeftForeArm LeftHand
      LeftHand LeftHand_dum1 LeftHand_dum2
      LeftHand_dum1 LeftHandThumb1
      RightShoulder RightArm
      RightArm RightForeArm
      RightForeArm RightHand
      RightHand RightHand_dum1 RightHand_dum2
      RightHand_dum1 RightHandThumb1
      LeftUpLeg LeftLeg
      LeftLeg LeftFoot
      LeftFoot LeftToeBase
      RightUpLeg RightLeg
      RightLeg RightFoot
      RightFoot RightToeBase
   end

# File created by Blade
# Date/Time:  Fri Jan 16 17:25:22 2015
# Frame Rate: 120.000 fps
#------------------------------------------------------
:FULLY-SPECIFIED
:DEGREES
764
root -5.710025 35.249185 -10.797565 -3.801545 -10.045223 -6.109470
Spine 4.406154 1.825067 9.438762
Head 4.443717 7.482681 -5.260843
LeftShoulder -18.865890 16.177302 -16.708822
LeftArm 27.071237 19.991886 -65.632090
LeftForeArm 11.051693 -0.000000 15.629133
LeftHand 0.631159 -0.000000 -7.096385
LeftHandThumb1 -26.253704 0.000000 33.147579
RightShoulder -1.554464 -4.316524 2.626640
RightArm 12.547506 -38.427639 64.506949
RightForeArm -26.487980 0.000000 23.398793
RightHand 1.130847 -0.000000 7.733115
RightHandThumb1 -24.326973 -0.000000 -32.862282
LeftUpLeg 13.566457 17.234753 8.527127
LeftLeg -8.734551 -0.000000 0.000000
LeftFoot -15.000946 29.694822 -7.534700
LeftToeBase 23.082861 -0.000000 -0.000000
RightUpLeg 8.716620 -4.130742 2.769409
RightLeg -4.122982 -0.000000 0.000000
RightFoot -3.220150 -22.225257 5.215692
RightToeBase 13.787105 -0.000000 -0.000000
765
root -5.710335 35.248987 -10.797388 -3.803697 -10.051633 -6.112055
Spine 4.408453 1.841122 9.445721
Head 4.445987 7.494479 -5.254438
LeftShoulder -18.869021 16.193425 -16.704264
LeftArm 27.067424 19.980036 -65.628246
LeftForeArm 11.020489 -0.000000 15.615034
LeftHand 0.659398 -0.000000 -7.069101
LeftHandThumb1 -26.253704 0.000000 33.147579
RightShoulder -1.566821 -4.345812 2.640213
RightArm 12.533362 -38.378228 64.515591
RightForeArm -26.413705 -0.000000 23.368128
RightHand 1.135935 -0.000000 7.633229
RightHandThumb1 -24.326973 -0.000000 -32.862282
LeftUpLeg 13.569118 17.235259 8.529543
LeftLeg -8.726264 -0.000000 0.000000
LeftFoot -15.008449 29.718045 -7.505070
LeftToeBase 23.103956 -0.000000 -0.000000
RightUpLeg 8.718656 -4.127778 2.772597
RightLeg -4.121921 -0.000000 0.000000
RightFoot -3.217640 -22.223849 5.201643
RightToeBase 13.797614 -0.000000 -0.000000
766
root -5.711199 35.248864 -10.797199 -3.805533 -10.048536 -6.113197
Spine 4.410001 1.845322 9.446633
Head 4.445844 7.501927 -5.247296
LeftShoulder -18.862067 16.194322 -16.695264
LeftArm 27.022775 19.934739 -65.652060
LeftForeArm 11.065983 -0.000000 15.630665
LeftHand 0.681312 -0.000000 -7.074243
LeftHandThumb1 -26.253704 0.000000 33.147579
RightShoulder -1.561777 -4.313889 2.652838
RightArm 12.432005 -38.328768 64.582668
RightForeArm -26.322542 -0.000000 23.355641
RightHand 1.157052 -0.000000 7.723486
RightHandThumb1 -24.326973 -0.000000 -32.862282
LeftUpLeg 13.573116 17.253208 8.537821
LeftLeg -8.733845 -0.000000 0.000000
LeftFoot -14.996303 29.685560 -7.518374
LeftToeBase 23.089067 -0.000000 -0.000000
RightUpLeg 8.722938 -4.125803 2.774427
RightLeg -4.124649 -0.000000 0.000000
RightFoot -3.217652 -22.229761 5.177571
RightToeBase 13.833138 -0.000000 -0.000000
767
root -5.711844 35.248742 -10.796867 -3.804347 -10.057958 -6.115379
Spine 4.408787 1.849710 9.446164
Head 4.454218 7.499507 -5.230172
LeftShoulder -18.868197 16.204189 -16.683252
LeftArm 27.015611 19.949882 -65.638536
LeftForeArm 11.086575 -0.000000 15.624833
LeftHand 0.723563 -0.000000 -7.093176
LeftHandThumb1 -26.253704 0.000000 33.147579
RightShoulder -1.564583 -4.340169 2.672663
RightArm 12.428254 -38.311003 64.573154
RightForeArm -26.282081 -0.000000 23.357659
RightHand 1.145309 -0.000000 7.642378
RightHandThumb1 -24.326973 -0.000000 -32.862282
LeftUpLeg 13.578079 17.265072 8.543455
LeftLeg -8.741012 -0.000000 0.000000
LeftFoot -15.002273 29.685876 -7.489019
LeftToeBase 23.163659 -0.000000 -0.000000
RightUpLeg 8.724867 -4.094251 2.780210
RightLeg -4.130968 -0.000000 0.000000
RightFoot -3.221643 -22.249521 5.194713
RightToeBase 13.856889 -0.000000 -0.000000
768
root -5.713131 35.248829 -10.796842 -3.802771 -10.069413 -6.120946
Spine 4.409254 1.853286 9.446895
Head 4.458410 7.504088 -5.215287
LeftShoulder -18.875944 16.218450 -16.675981
LeftArm 27.015153 19.943054 -65.630531
LeftForeArm 11.139492 -0.000000 15.621148
LeftHand 0.754064 -0.000000 -7.114893
LeftHandThumb1 -26.253704 0.000000 33.147579
RightShoulder -1.563681 -4.360991 2.693362
RightArm 12.422136 -38.292785 64.560691
RightForeArm -26.239834 -0.000000 23.371749
RightHand 1.102887 -0.000000 7.707227
RightHandThumb1 -24.326973 -0.000000 -32.862282
LeftUpLeg 13.584551 17.250564 8.545543
LeftLeg -8.745061 -0.000000 0.000000
LeftFoot -15.005968 29.719729 -7.519554
LeftToeBase 23.101806 -0.000000 -0.000000
RightUpLeg 8.722946 -4.086781 2.787131
RightLeg -4.129047 -0.000000 0.000000
RightFoot -3.207255 -22.235097 5.220232
RightToeBase 13.730410 -0.000000 -0.000000
